<svg display="none" xmlns="http://www.w3.org/2000/svg">
    <symbol id="logo" viewBox="0 0 33 34">
        <g>
            <circle cx="16.5" cy="17" r="15.25" stroke="#7A9CA5" stroke-width="2.5" />
            <path
                d="M24.766 12.6842C24.8916 13.9888 24.4194 15.2969 23.4533 16.3209L17.6715 22.4674L9.70748 23.2339L9.03718 16.2696L14.8292 10.1303C15.7953 9.10633 17.1761 8.45041 18.6679 8.30683L23.8855 8.43175L24.766 12.6842Z"
                stroke="#7A9CA5" stroke-width="2.5" stroke-linecap="round" stroke-linejoin="round" />
            <path d="M20 12.5L5 27.5" stroke="#7A9CA5" stroke-width="2.5" stroke-linecap="round"
                stroke-linejoin="round" />
            <path d="M21 18.5H14" stroke="#7A9CA5" stroke-width="2.5" stroke-linecap="round"
                stroke-linejoin="round" />
            <path d="M20 12.5H13" stroke="#7A9CA5" stroke-width="2.5" stroke-linecap="round"
                stroke-linejoin="round" />
        </g>
    </symbol>
    <symbol id="facebook" viewBox="0 0 11 19">
        <path
            d="M9.68359 10.375L10.1758 7.14062H7.04688V5.03125C7.04688 4.11719 7.46875 3.27344 8.875 3.27344H10.3164V0.496094C10.3164 0.496094 9.01562 0.25 7.78516 0.25C5.21875 0.25 3.53125 1.83203 3.53125 4.64453V7.14062H0.648438V10.375H3.53125V18.25H7.04688V10.375H9.68359Z" />
    </symbol>

    <symbol id="twitter" viewBox="0 0 19 16">
        <path
            d="M16.6367 4.59375C17.3398 4.06641 17.9727 3.43359 18.4648 2.69531C17.832 2.97656 17.0938 3.1875 16.3555 3.25781C17.1289 2.80078 17.6914 2.09766 17.9727 1.21875C17.2695 1.64062 16.4609 1.95703 15.6523 2.13281C14.9492 1.39453 14 0.972656 12.9453 0.972656C10.9062 0.972656 9.25391 2.625 9.25391 4.66406C9.25391 4.94531 9.28906 5.22656 9.35938 5.50781C6.30078 5.33203 3.55859 3.85547 1.73047 1.64062C1.41406 2.16797 1.23828 2.80078 1.23828 3.50391C1.23828 4.76953 1.87109 5.89453 2.89062 6.5625C2.29297 6.52734 1.69531 6.38672 1.20312 6.10547V6.14062C1.20312 7.93359 2.46875 9.41016 4.15625 9.76172C3.875 9.83203 3.52344 9.90234 3.20703 9.90234C2.96094 9.90234 2.75 9.86719 2.50391 9.83203C2.96094 11.3086 4.33203 12.3633 5.94922 12.3984C4.68359 13.3828 3.10156 13.9805 1.37891 13.9805C1.0625 13.9805 0.78125 13.9453 0.5 13.9102C2.11719 14.9648 4.05078 15.5625 6.16016 15.5625C12.9453 15.5625 16.6367 9.97266 16.6367 5.08594C16.6367 4.91016 16.6367 4.76953 16.6367 4.59375Z" />
    </symbol>

    <symbol id="linkedin" viewBox="0 0 17 16">
        <path
            d="M4.14062 16V5.48828H0.871094V16H4.14062ZM2.48828 4.08203C3.54297 4.08203 4.38672 3.20312 4.38672 2.14844C4.38672 1.12891 3.54297 0.285156 2.48828 0.285156C1.46875 0.285156 0.625 1.12891 0.625 2.14844C0.625 3.20312 1.46875 4.08203 2.48828 4.08203ZM16.3398 16H16.375V10.2344C16.375 7.42188 15.7422 5.24219 12.4375 5.24219C10.8555 5.24219 9.80078 6.12109 9.34375 6.92969H9.30859V5.48828H6.17969V16H9.44922V10.7969C9.44922 9.42578 9.69531 8.125 11.3828 8.125C13.0703 8.125 13.1055 9.67188 13.1055 10.9023V16H16.3398Z" />
    </symbol>

    <symbol id="instagram" viewBox="0 0 18 18">
        <path
            d="M9 4.60742C6.625 4.60742 4.73242 6.53711 4.73242 8.875C4.73242 11.25 6.625 13.1426 9 13.1426C11.3379 13.1426 13.2676 11.25 13.2676 8.875C13.2676 6.53711 11.3379 4.60742 9 4.60742ZM9 11.6582C7.47852 11.6582 6.2168 10.4336 6.2168 8.875C6.2168 7.35352 7.44141 6.12891 9 6.12891C10.5215 6.12891 11.7461 7.35352 11.7461 8.875C11.7461 10.4336 10.5215 11.6582 9 11.6582ZM14.418 4.45898C14.418 3.90234 13.9727 3.45703 13.416 3.45703C12.8594 3.45703 12.4141 3.90234 12.4141 4.45898C12.4141 5.01562 12.8594 5.46094 13.416 5.46094C13.9727 5.46094 14.418 5.01562 14.418 4.45898ZM17.2383 5.46094C17.1641 4.125 16.8672 2.9375 15.9023 1.97266C14.9375 1.00781 13.75 0.710938 12.4141 0.636719C11.041 0.5625 6.92188 0.5625 5.54883 0.636719C4.21289 0.710938 3.0625 1.00781 2.06055 1.97266C1.0957 2.9375 0.798828 4.125 0.724609 5.46094C0.650391 6.83398 0.650391 10.9531 0.724609 12.3262C0.798828 13.6621 1.0957 14.8125 2.06055 15.8145C3.0625 16.7793 4.21289 17.0762 5.54883 17.1504C6.92188 17.2246 11.041 17.2246 12.4141 17.1504C13.75 17.0762 14.9375 16.7793 15.9023 15.8145C16.8672 14.8125 17.1641 13.6621 17.2383 12.3262C17.3125 10.9531 17.3125 6.83398 17.2383 5.46094ZM15.457 13.7734C15.1973 14.5156 14.6035 15.0723 13.8984 15.3691C12.7852 15.8145 10.1875 15.7031 9 15.7031C7.77539 15.7031 5.17773 15.8145 4.10156 15.3691C3.35938 15.0723 2.80273 14.5156 2.50586 13.7734C2.06055 12.6973 2.17188 10.0996 2.17188 8.875C2.17188 7.6875 2.06055 5.08984 2.50586 3.97656C2.80273 3.27148 3.35938 2.71484 4.10156 2.41797C5.17773 1.97266 7.77539 2.08398 9 2.08398C10.1875 2.08398 12.7852 1.97266 13.8984 2.41797C14.6035 2.67773 15.1602 3.27148 15.457 3.97656C15.9023 5.08984 15.791 7.6875 15.791 8.875C15.791 10.0996 15.9023 12.6973 15.457 13.7734Z" />
    </symbol>
</svg>